<svg xmlns="http://www.w3.org/2000/svg" style="margin:auto;background:#f1f2f3;display:block;" width="600" height="200"
   preserveAspectRatio="xMidYMid">
	<style type="text/css">
		text {
			text-anchor: middle;
			font-size: 54px;
			opacity: 0;
		}
		@keyframes text-float {
			0% {
				transform: translateY(0px);
				opacity: 0.05;

			}

			100% {
				transform: translateY(-30px);
				opacity: 1;
			}
		}

		.text-float {
			animation: text-float 1s cubic-bezier(.56, -0.04, .32, .7) alternate forwards;
			opacity: 0.05;
			transform-origin: center top;
		}

		.text-float:nth-child(2) {
			animation-delay: 0.1s;
		}

		.text-float:nth-child(3) {
			animation-delay: 0.2s;
		}

		.text-float:nth-child(4) {
			animation-delay: 0.3s;
		}

		.text-float:nth-child(5) {
			animation-delay: 0.4s;
		}

		.text-float:nth-child(6) {
			animation-delay: 0.5s;
		}

		.text-item {
		stroke: "none";
		stroke-width: "none";
		fill: rgb(25, 29, 58);
		transform: translate(-128.07998657226562,21.768238576253253);
		}
	</style>
	<g style=" transform: scale(0.675);">
		<g transform="translate(300,190)">
			<g class="path text-float">
				<path class="text-item"
				  d="M48.32-55.12L48.32-55.12Q48.72-56 49.48-56.48L49.48-56.48L49.48-56.48Q50.24-56.96 51.12-56.96L51.12-56.96L51.12-56.96Q52.40-56.96 53.40-56.12L53.40-56.12L53.40-56.12Q54.40-55.28 54.40-54.08L54.40-54.08L54.40-54.08Q54.40-53.44 54.08-52.80L54.08-52.80L31.12-1.76L31.12-1.76Q30.64-0.72 29.68-0.16L29.68-0.16L29.68-0.16Q28.72 0.40 27.60 0.40L27.60 0.40L27.60 0.40Q26.48 0.40 25.52-0.16L25.52-0.16L25.52-0.16Q24.56-0.72 24.08-1.76L24.08-1.76L1.20-52.80L1.20-52.80Q0.96-53.44 0.96-54L0.96-54L0.96-54Q0.96-55.28 2-56.12L2-56.12L2-56.12Q3.04-56.96 4.32-56.96L4.32-56.96L4.32-56.96Q6.24-56.96 7.12-55.12L7.12-55.12L27.76-8.48L48.32-55.12">
				</path>
			</g>
			<g class="path text-float">
				<path class="text-item"
				  d="M65.60 0L65.60 0Q64.08 0 63.16-0.88L63.16-0.88L63.16-0.88Q62.24-1.76 62.24-3.20L62.24-3.20L62.24-53.20L62.24-53.20Q62.24-54.64 63.16-55.52L63.16-55.52L63.16-55.52Q64.08-56.40 65.60-56.40L65.60-56.40L95.52-56.40L95.52-56.40Q96.96-56.40 97.76-55.68L97.76-55.68L97.76-55.68Q98.56-54.96 98.56-53.68L98.56-53.68L98.56-53.68Q98.56-52.40 97.76-51.68L97.76-51.68L97.76-51.68Q96.96-50.96 95.52-50.96L95.52-50.96L68.72-50.96L68.72-31.36L93.92-31.36L93.92-31.36Q95.36-31.36 96.16-30.64L96.16-30.64L96.16-30.64Q96.96-29.92 96.96-28.64L96.96-28.64L96.96-28.64Q96.96-27.36 96.16-26.64L96.16-26.64L96.16-26.64Q95.36-25.92 93.92-25.92L93.92-25.92L68.72-25.92L68.72-5.44L95.52-5.44L95.52-5.44Q96.96-5.44 97.76-4.76L97.76-4.76L97.76-4.76Q98.56-4.08 98.56-2.72L98.56-2.72L98.56-2.72Q98.56-1.44 97.76-0.72L97.76-0.72L97.76-0.72Q96.96 0 95.52 0L95.52 0L65.60 0">
				</path>
			</g>
			<g class="path text-float">
				<path class="text-item"
				  d="M150.96-56.80L150.96-56.80Q152.40-56.80 153.20-55.88L153.20-55.88L153.20-55.88Q154-54.96 154-53.44L154-53.44L154-2.96L154-2.96Q154-1.44 153.16-0.52L153.16-0.52L153.16-0.52Q152.32 0.40 150.80 0.40L150.80 0.40L150.80 0.40Q149.28 0.40 148.16-0.96L148.16-0.96L114.96-45.36L114.96-2.96L114.96-2.96Q114.96-1.44 114.12-0.52L114.12-0.52L114.12-0.52Q113.28 0.40 111.84 0.40L111.84 0.40L111.84 0.40Q110.40 0.40 109.60-0.52L109.60-0.52L109.60-0.52Q108.80-1.44 108.80-2.96L108.80-2.96L108.80-53.44L108.80-53.44Q108.80-54.96 109.64-55.88L109.64-55.88L109.64-55.88Q110.48-56.80 112-56.80L112-56.80L112-56.80Q113.60-56.80 114.72-55.44L114.72-55.44L147.84-11.04L147.84-53.44L147.84-53.44Q147.84-54.96 148.68-55.88L148.68-55.88L148.68-55.88Q149.52-56.80 150.96-56.80L150.96-56.80">
				</path>
			</g>
			<g class="path text-float">
				<path class="text-item"
				  d="M164.16 0.40L164.16 0.40Q162.16 0.56 161.12-0.16L161.12-0.16L161.12-0.16Q160.08-0.88 160.08-2.32L160.08-2.32L160.08-2.32Q160.08-4.96 163.04-5.04L163.04-5.04L165.44-5.20L165.44-5.20Q169.52-5.44 171.52-7.72L171.52-7.72L171.52-7.72Q173.52-10 173.52-15.04L173.52-15.04L173.52-53.44L173.52-53.44Q173.52-54.96 174.48-55.88L174.48-55.88L174.48-55.88Q175.44-56.80 176.80-56.80L176.80-56.80L176.80-56.80Q178.32-56.80 179.20-55.88L179.20-55.88L179.20-55.88Q180.08-54.96 180.08-53.44L180.08-53.44L180.08-14.96L180.08-14.96Q180.08-7.60 176.72-3.88L176.72-3.88L176.72-3.88Q173.36-0.16 166.56 0.24L166.56 0.24L164.16 0.40">
				</path>
			</g>
			<g class="path text-float">
				<path class="text-item"
				  d="M197.28 0.40L197.28 0.40Q195.76 0.40 194.88-0.52L194.88-0.52L194.88-0.52Q194.00-1.44 194.00-2.96L194.00-2.96L194.00-53.44L194.00-53.44Q194.00-54.96 194.88-55.88L194.88-55.88L194.88-55.88Q195.76-56.80 197.28-56.80L197.28-56.80L197.28-56.80Q198.80-56.80 199.68-55.88L199.68-55.88L199.68-55.88Q200.56-54.96 200.56-53.44L200.56-53.44L200.56-2.96L200.56-2.96Q200.56-1.44 199.68-0.52L199.68-0.52L199.68-0.52Q198.80 0.40 197.28 0.40L197.28 0.40">
				</path>
			</g>
			<g class="path text-float">
				<path class="text-item"
				  d="M256.32-4.72L256.32-4.72Q257.12-3.84 257.12-2.72L257.12-2.72L257.12-2.72Q257.12-1.44 256.16-0.56L256.16-0.56L256.16-0.56Q255.20 0.32 253.92 0.32L253.92 0.32L253.92 0.32Q252.64 0.32 251.60-0.80L251.60-0.80L233.36-24.08L215.04-0.80L215.04-0.80Q214.16 0.32 212.72 0.32L212.72 0.32L212.72 0.32Q211.52 0.32 210.56-0.60L210.56-0.60L210.56-0.60Q209.60-1.52 209.60-2.72L209.60-2.72L209.60-2.72Q209.60-3.92 210.32-4.72L210.32-4.72L229.52-28.80L211.36-51.68L211.36-51.68Q210.56-52.56 210.56-53.76L210.56-53.76L210.56-53.76Q210.56-54.96 211.48-55.84L211.48-55.84L211.48-55.84Q212.40-56.72 213.60-56.72L213.60-56.72L213.60-56.72Q214.96-56.72 215.92-55.52L215.92-55.52L233.36-33.44L250.72-55.52L250.72-55.52Q251.68-56.72 253.04-56.72L253.04-56.72L253.04-56.72Q254.24-56.72 255.20-55.80L255.20-55.80L255.20-55.80Q256.16-54.88 256.16-53.60L256.16-53.60L256.16-53.60Q256.16-52.48 255.44-51.68L255.44-51.68L237.20-28.80L256.32-4.72">
				</path>
			</g>
		</g>
	</g>
</svg>